<?xml version="1.0" encoding="utf-8"?>
<!-- Generator: Adobe Illustrator 21.0.0, SVG Export Plug-In . SVG Version: 6.00 Build 0)  -->
<svg version="1.1" xmlns="http://www.w3.org/2000/svg" xmlns:xlink="http://www.w3.org/1999/xlink" x="0px" y="0px"
	 viewBox="0 0 700 500" style="enable-background:new 0 0 700 500;" xml:space="preserve">
<style type="text/css">
	.st0{fill:none;}
	.st1{fill:#F67812;}
	.st2{enable-background:new    ;}
	.st3{fill-rule:evenodd;clip-rule:evenodd;fill:#FCFF00;}
	.st4{fill-rule:evenodd;clip-rule:evenodd;fill:#FFCC00;}
	.st5{fill-rule:evenodd;clip-rule:evenodd;fill:#F67812;}
</style>
<g id="ОБЛАСТЬ__РАЗВИТИЯ">
	<g>
		<rect x="329" y="299.5" class="st0" width="319" height="133"/>
		<path class="st1" d="M361.5,319.3c0,5-1.4,9.1-4.3,12.4s-6.6,4.9-11.2,4.9c-4.6,0-8.3-1.6-11.2-4.9s-4.3-7.4-4.3-12.4v-0.5
			c0-5,1.4-9.1,4.2-12.4s6.5-4.9,11.2-4.9c4.6,0,8.4,1.6,11.2,4.9s4.3,7.4,4.3,12.4V319.3z M354.7,318.7c0-3.5-0.7-6.4-2.2-8.6
			s-3.6-3.3-6.5-3.3s-5,1.1-6.4,3.3s-2.1,5.1-2.1,8.6v0.6c0,3.6,0.7,6.5,2.1,8.7s3.6,3.3,6.4,3.3c2.9,0,5.1-1.1,6.5-3.3
			s2.2-5.1,2.2-8.7V318.7z"/>
		<path class="st1" d="M364.4,332l3.6-0.7v-24.5l-3.6-0.7v-4.1h25.9v8.6h-5.3l-0.3-3.4H375v7.4h5.9c4,0,7.1,1,9.4,2.9
			s3.4,4.5,3.4,7.7c0,3.3-1.2,5.9-3.5,7.9s-5.4,3-9.4,3h-16.4V332z M375,319.8v11h5.9c1.9,0,3.4-0.5,4.4-1.6s1.6-2.4,1.6-4.1
			c0-1.6-0.5-2.8-1.5-3.8s-2.5-1.5-4.5-1.5H375z"/>
		<path class="st1" d="M409.4,307.2l-0.1,10.3c-0.1,6.6-1,11.4-2.9,14.3s-4.7,4.3-8.6,4.3h-1.7v-5.3h0.9c2.1-0.2,3.5-1.2,4.3-3
			s1.1-5.3,1.2-10.3l0.1-10.7l-3.6-0.7v-4.1h26.8h3.7v4.1l-3.7,0.7v24.5l3.7,0.7v4.1h-14.1V332l3.7-0.7v-24H409.4z"/>
		<path class="st1" d="M431.7,332l2.4-0.4l10.4-29.7h7l10.3,29.7l2.4,0.4v4.1h-11.6V332l2.4-0.4l-1.5-4.7h-11.1l-1.5,4.7l2.4,0.4
			v4.1h-11.6V332z M444.1,321.8h7.8l-3.8-12h-0.1L444.1,321.8z"/>
		<path class="st1" d="M493.1,313.4H488l-0.7-4.5c-0.7-0.7-1.5-1.2-2.5-1.6s-2.2-0.6-3.6-0.6c-3,0-5.3,1.1-6.9,3.2s-2.4,5-2.4,8.4
			v1.2c0,3.5,0.8,6.3,2.4,8.5s3.8,3.3,6.8,3.3c1.3,0,2.6-0.2,3.7-0.6s2-0.9,2.6-1.6l0.7-4.5h5.1v6.8c-1.4,1.6-3.1,2.9-5.3,3.8
			s-4.5,1.4-7.2,1.4c-4.6,0-8.3-1.6-11.3-4.8s-4.4-7.2-4.4-12.2v-1.1c0-5,1.5-9,4.4-12.2s6.7-4.8,11.3-4.8c2.6,0,5,0.5,7.1,1.4
			s3.9,2.2,5.3,3.8V313.4z"/>
		<path class="st1" d="M525.6,301.9v9.1h-5.3l-0.3-3.8h-6.3v24l3.7,0.7v4.1h-14.2V332l3.7-0.7v-24h-6.3l-0.3,3.8h-5.2v-9.1H525.6z"
			/>
		<path class="st1" d="M539,301.9v12.6h5.9c4,0,7.1,1,9.4,2.9s3.4,4.5,3.4,7.7c0,3.3-1.2,5.9-3.5,7.9s-5.4,3-9.4,3h-16.4V332
			l3.7-0.7v-24.5l-3.7-0.7v-4.1h3.7H539z M542.6,301.9v4.1l-3.7,0.7v-4.8H542.6z M539,319.8v11h5.9c1.9,0,3.4-0.5,4.4-1.6
			s1.6-2.4,1.6-4.1c0-1.6-0.5-2.8-1.5-3.8s-2.5-1.5-4.5-1.5H539z"/>
		<path class="st1" d="M346.6,359.5c3.9,0,7,1,9.2,3c2.3,2,3.4,4.6,3.4,7.9c0,3.3-1.1,5.9-3.4,7.9c-2.3,2-5.3,3-9.2,3h-5.8v7.6
			l3.7,0.7v4.1h-14.1v-4.1l3.6-0.7v-24.5l-3.6-0.7v-4.1h3.6H346.6z M340.8,376h5.8c1.9,0,3.3-0.5,4.3-1.6c1-1,1.5-2.4,1.5-4
			c0-1.6-0.5-3-1.5-4.1c-1-1.1-2.4-1.6-4.3-1.6h-5.8V376z"/>
		<path class="st1" d="M355.5,389.6l2.4-0.4l10.4-29.7h7l10.3,29.7l2.4,0.4v4.1h-11.6v-4.1l2.4-0.4l-1.5-4.7h-11.1l-1.5,4.7l2.4,0.4
			v4.1h-11.6V389.6z M367.9,379.4h7.8l-3.8-12h-0.1L367.9,379.4z"/>
		<path class="st1" d="M403.3,373.7c1.8,0,3.2-0.4,4.1-1.3s1.3-2,1.3-3.5c0-1.3-0.5-2.4-1.5-3.3c-1-0.9-2.6-1.3-4.7-1.3
			c-1.3,0-2.5,0.2-3.6,0.6s-1.8,0.9-2.4,1.6l-0.7,4.2h-5.1v-6.4c1.3-1.6,3.1-2.8,5.2-3.8c2.1-1,4.5-1.5,7.1-1.5
			c3.9,0,6.9,0.8,9.2,2.5s3.4,4.1,3.4,7.2c0,1.6-0.5,3-1.4,4.3c-0.9,1.3-2.2,2.3-3.9,3c1.9,0.7,3.3,1.7,4.3,3c1,1.4,1.5,3,1.5,4.9
			c0,3.1-1.2,5.6-3.6,7.4s-5.6,2.7-9.5,2.7c-3.4,0-6.4-0.8-8.9-2.5c-2.5-1.7-3.7-4.1-3.6-7.3l0-0.1h6.7c0,1.3,0.5,2.4,1.6,3.4
			c1.1,0.9,2.5,1.4,4.2,1.4c1.9,0,3.4-0.5,4.6-1.4s1.7-2.1,1.7-3.5c0-1.8-0.5-3.1-1.5-3.9c-1-0.8-2.5-1.3-4.4-1.3h-4.1v-5.1H403.3z"
			/>
		<path class="st1" d="M434.1,359.5c4,0,7.1,0.8,9.4,2.3c2.3,1.6,3.4,3.9,3.4,7c0,1.6-0.4,3-1.3,4.2s-2.1,2.2-3.6,2.8
			c2,0.4,3.6,1.4,4.6,2.8c1,1.4,1.5,3.1,1.5,5c0,3.3-1.1,5.7-3.2,7.4c-2.2,1.7-5.2,2.5-9.2,2.5h-16.8v-4.1l3.6-0.7v-24.5l-3.6-0.7
			v-4.1h3.6H434.1z M429.4,373.8h4.9c1.8,0,3.2-0.4,4.2-1.1s1.5-1.8,1.5-3.3c0-1.6-0.5-2.7-1.5-3.5s-2.5-1.1-4.4-1.1h-4.7V373.8z
			 M429.4,378.6v9.8h6.3c1.8,0,3.2-0.4,4.1-1.2c1-0.8,1.4-2,1.4-3.5c0-1.7-0.4-2.9-1.2-3.8c-0.8-0.9-2.1-1.3-3.8-1.3H429.4z"/>
		<path class="st1" d="M465.1,359.5v4.1l-3.7,0.7v15.8l0.1,0l13.8-13.9v-1.9l-3.6-0.7v-4.1h3.6h6.9h3.6v4.1l-3.6,0.7v24.5l3.6,0.7
			v4.1h-14.1v-4.1l3.6-0.7v-15.4l-0.1,0l-13.8,14v1.5l3.7,0.7v4.1H451v-4.1l3.7-0.7v-24.5l-3.7-0.7v-4.1h3.7h6.8H465.1z"/>
		<path class="st1" d="M518.3,359.5v9.1h-5.3l-0.3-3.8h-6.3v24l3.7,0.7v4.1H496v-4.1l3.7-0.7v-24h-6.3l-0.3,3.8h-5.2v-9.1H518.3z"/>
		<path class="st1" d="M535,359.5v4.1l-3.7,0.7v15.8l0.1,0l13.8-13.9v-1.9l-3.6-0.7v-4.1h3.6h6.9h3.6v4.1l-3.6,0.7v24.5l3.6,0.7v4.1
			h-14.1v-4.1l3.6-0.7v-15.4l-0.1,0l-13.8,14v1.5l3.7,0.7v4.1h-14.1v-4.1l3.7-0.7v-24.5l-3.7-0.7v-4.1h3.7h6.8H535z"/>
		<path class="st1" d="M588.1,359.5v4.1l-3.6,0.7v24.5l3.6,0.7v4.1h-10.5v-12.8h-4.5l-3.2,7.4c-0.8,1.8-1.9,3.2-3.1,4.2
			c-1.2,1-2.7,1.5-4.4,1.5c-0.8,0-1.5-0.1-2.2-0.3c-0.7-0.2-1.3-0.5-1.8-0.8l0.9-5.2c0.3,0.1,0.6,0.2,0.8,0.2c0.2,0,0.5,0.1,0.8,0.1
			c0.7,0,1.3-0.2,1.8-0.6c0.6-0.4,1.1-1.1,1.7-2.1l2.7-5.6c-2.4-0.9-4.1-2.1-5.3-3.6c-1.2-1.5-1.8-3.5-1.8-5.8
			c0-3.4,1.1-5.9,3.3-7.8c2.2-1.8,5.3-2.7,9.2-2.7h11.8H588.1z M566.9,370.3c0,1.8,0.5,3.1,1.5,4.1c1,1,2.4,1.5,4.3,1.5h5v-11h-5
			c-1.9,0-3.3,0.5-4.3,1.4C567.4,367.2,566.9,368.5,566.9,370.3z M574,393.7v-4.1l3.7-0.7v4.8H574z"/>
	</g>
</g>
<g id="Прямоугольник_3_1_" class="st2">
	<g id="Прямоугольник_3">
		<g>
			<polygon class="st3" points="31.4,244 31.4,244.1 166.8,383.3 273,61 			"/>
		</g>
	</g>
</g>
<g id="Прямоугольник_2_1_" class="st2">
	<g id="Прямоугольник_2">
		<g>
			<polygon class="st4" points="86,241.9 86,242 218.5,370.7 273.4,60.9 			"/>
		</g>
	</g>
</g>
<g id="Прямоугольник_1_1_" class="st2">
	<g id="Прямоугольник_1">
		<g>
			<polygon class="st5" points="273.1,61 273,61 166.4,258.9 313.3,397.6 			"/>
		</g>
	</g>
</g>
</svg>
